<svg xmlns="http://www.w3.org/2000/svg" style="display: none;">

  <symbol id="key" viewBox="0 0 24 24">
    <path fill="currentColor" d="M21.405,9.405H11.068C10.113,7.483,8.127,6.162,5.832,6.162C2.614,6.162,0,8.776,0,12s2.614,5.838,5.832,5.838c2.295,0,4.281-1.321,5.236-3.243h0.607l1.946,1.946l1.946-1.946l1.946,1.946l1.946-1.946h1.946L24,12L21.405,9.405z M5.832,13.297c-0.715,0-1.297-0.582-1.297-1.297s0.582-1.297,1.297-1.297S7.13,11.283,7.13,12S6.548,13.297,5.832,13.297z"/>
  </symbol>

  <symbol id="user" viewBox="0 0 24 24">
    <circle cx="12" cy="7" r="4" stroke="currentColor" stroke-width="2" fill="none" />
    <path d="M4 21v-2a4 4 0 0 1 4-4h8a4 4 0 0 1 4 4v2" stroke="currentColor" stroke-width="2" fill="none" stroke-linecap="round" />
  </symbol>
  
</svg>

