<svg xmlns="http://www.w3.org/2000/svg" style="display: none;">

  <symbol id="key" viewBox="0 0 24 24">
    <path fill="currentColor" d="M21.405,9.405H11.068C10.113,7.483,8.127,6.162,5.832,6.162C2.614,6.162,0,8.776,0,12s2.614,5.838,5.832,5.838c2.295,0,4.281-1.321,5.236-3.243h0.607l1.946,1.946l1.946-1.946l1.946,1.946l1.946-1.946h1.946L24,12L21.405,9.405z M5.832,13.297c-0.715,0-1.297-0.582-1.297-1.297s0.582-1.297,1.297-1.297S7.13,11.283,7.13,12S6.548,13.297,5.832,13.297z"/>
  </symbol>

  <symbol id="user" viewBox="0 0 24 24">
    <circle cx="12" cy="7" r="4" stroke="currentColor" stroke-width="2" fill="none" />
    <path d="M4 21v-2a4 4 0 0 1 4-4h8a4 4 0 0 1 4 4v2" stroke="currentColor" stroke-width="2" fill="none" stroke-linecap="round" />
  </symbol>

  <symbol id="plane" viewBox="0 0 24 24" fill="currentColor">
    <path d="M21,16V14L13,9V3.5A1.5,1.5 0 0,0 11.5,2A1.5,1.5 0 0,0 10,3.5V9L2,14V16L10,13.5V19L8,20.5V22L11.5,21L15,22V20.5L13,19V13.5L21,16Z" />
  </symbol>

  <symbol id="search" viewBox="0 0 24 24">
    <circle cx="11" cy="11" r="8" stroke="currentColor" stroke-width="2" fill="none" />
    <path d="m21 21-4.35-4.35" stroke="currentColor" stroke-width="2" fill="none" stroke-linecap="round" />
  </symbol>

  <symbol id="check" viewBox="0 0 24 24">
    <rect x="3" y="3" width="18" height="18" rx="2" stroke="currentColor" stroke-width="2" fill="none" />
    <path d="m9 12 2 2 4-4" stroke="currentColor" stroke-width="2" fill="none" stroke-linecap="round" stroke-linejoin="round" />
  </symbol>

  <symbol id="new" viewBox="0 0 24 24">
    <path d="M14 2H6a2 2 0 0 0-2 2v16a2 2 0 0 0 2 2h12a2 2 0 0 0 2-2V8z" stroke="currentColor" stroke-width="2" fill="none" />
    <path d="M14 2v6h6m-8 4v6m-3-3h6" stroke="currentColor" stroke-width="2" fill="none" stroke-linecap="round" />
  </symbol>
  
  <symbol id="arrow" viewBox="0 0 24 24">
    <path d="M5 12h14m-7-7 7 7-7 7" stroke="currentColor" stroke-width="2" fill="none" stroke-linecap="round" stroke-linejoin="round" />
  </symbol>

  <symbol id="grid" viewBox="0 0 24 24" fill="currentColor">
    <path d="M13,3V9H21V3M13,21H21V11H13M3,21H11V15H3M3,13H11V3H3V13Z" />
  </symbol>

  <symbol id="logout" viewBox="0 0 24 24">
    <path d="M9 21H5a2 2 0 0 1-2-2V5a2 2 0 0 1 2-2h4m7 14 5-5-5-5m5 5H9" stroke="currentColor" stroke-width="2" fill="none" stroke-linecap="round" stroke-linejoin="round" />
  </symbol>

  <symbol id="message" viewBox="0 0 24 24" fill="none" stroke="currentColor" stroke-width="2" stroke-linecap="round" stroke-linejoin="round">
    <path d="M21 11.5a8.38 8.38 0 0 1-.9 3.8 8.5 8.5 0 0 1-7.6 4.7 8.38 8.38 0 0 1-3.8-.9L3 21l1.9-5.7a8.38 8.38 0 0 1-.9-3.8 8.5 8.5 0 0 1 4.7-7.6 8.38 8.38 0 0 1 3.8-.9h.5a8.48 8.48 0 0 1 8 8v.5z"></path>
  </symbol>
</svg>

